<svg width="1000" height="200" viewBox="0 0 1000 200" fill="none" xmlns="http://www.w3.org/2000/svg">
<path d="M286.93 145.379H308.867V54.7476H286.93V90.519H254.197V54.7476H232.196V145.379H254.197V109.164H286.93V145.379ZM388.894 100.047C388.894 108.436 386.488 115.337 381.708 120.751C376.928 126.164 370.628 128.855 362.873 128.855C355.117 128.855 348.659 126.164 343.879 120.751C339.099 115.369 336.725 108.436 336.725 100.016C336.725 91.5953 339.099 84.6626 343.879 79.2811C348.659 73.8995 354.99 71.1771 362.873 71.1771C370.755 71.1771 376.928 73.8995 381.708 79.3127C386.488 84.7259 388.894 91.627 388.894 100.016V100.047ZM407.603 118.091C409.755 112.393 410.832 106.379 410.832 100.016C410.832 94.9192 410.167 90.0442 408.837 85.359C407.508 80.6739 405.513 76.3371 402.791 72.38C400.069 68.423 396.84 64.9409 393.073 61.9968C389.306 59.0528 384.842 56.7419 379.65 55.0641C374.459 53.3864 368.856 52.5633 362.809 52.5633C356.763 52.5633 351.16 53.3864 345.968 55.0641C340.777 56.7419 336.282 59.0528 332.483 61.9968C328.684 64.9409 325.424 68.423 322.733 72.38C320.042 76.3371 318.016 80.6739 316.655 85.359C315.294 90.0442 314.629 94.9508 314.629 100.016C314.629 106.347 315.705 112.362 317.889 118.06C320.074 123.758 323.144 128.791 327.101 133.191C331.058 137.56 336.155 141.042 342.328 143.638C348.501 146.234 355.339 147.5 362.809 147.5C370.28 147.5 377.118 146.202 383.259 143.638C389.401 141.042 394.465 137.592 398.423 133.191C402.38 128.823 405.419 123.79 407.571 118.091H407.603ZM478.576 126.67H438.594V54.7476H416.593V145.379H478.576V126.734V126.67ZM550.657 100.016C550.657 108.405 548.251 115.306 543.471 120.719C538.691 126.132 532.391 128.823 524.635 128.823C516.88 128.823 510.422 126.132 505.642 120.719C500.862 115.337 498.487 108.405 498.487 99.9842C498.487 91.5636 500.862 84.631 505.642 79.2494C510.422 73.8679 516.753 71.1455 524.635 71.1455C532.518 71.1455 538.691 73.8679 543.471 79.2811C548.251 84.6943 550.657 91.5953 550.657 99.9842V100.016ZM569.365 118.06C571.518 112.362 572.594 106.347 572.594 99.9842C572.594 94.8875 571.93 90.0125 570.6 85.3274C569.271 80.6423 567.276 76.3054 564.554 72.3484C561.863 68.3914 558.602 64.9092 554.867 61.9652C551.1 59.0212 546.636 56.7103 541.445 55.0325C536.253 53.3547 530.65 52.5317 524.604 52.5317C518.557 52.5317 512.954 53.3547 507.763 55.0325C502.571 56.7103 498.076 59.0212 494.277 61.9652C490.478 64.9092 487.218 68.3914 484.527 72.3484C481.836 76.3054 479.81 80.6423 478.449 85.3274C477.12 90.0125 476.423 94.9192 476.423 99.9842C476.423 106.315 477.499 112.33 479.684 118.028C481.868 123.726 484.907 128.76 488.896 133.16C492.853 137.528 497.949 141.01 504.122 143.606C510.295 146.202 517.133 147.468 524.604 147.468C532.075 147.468 538.912 146.17 545.054 143.606C551.227 141.01 556.26 137.56 560.217 133.16C564.174 128.791 567.213 123.758 569.365 118.06ZM640.623 83.8712H662.941C661.706 79.3127 659.965 75.1974 657.749 71.462C655.533 67.7266 652.748 64.4344 649.424 61.5853C646.1 58.7046 642.08 56.4887 637.394 54.8742C632.709 53.2914 627.518 52.5 621.851 52.5C614.38 52.5 607.574 53.7662 601.433 56.3304C595.292 58.8945 590.227 62.345 586.238 66.7136C582.25 71.0821 579.179 76.1155 577.026 81.8136C574.874 87.5117 573.797 93.558 573.797 99.9842C573.797 106.41 574.905 112.425 577.121 118.186C579.337 123.948 582.376 128.981 586.27 133.318C590.164 137.623 594.944 141.074 600.61 143.638C606.277 146.202 612.449 147.468 619.034 147.468C632.678 147.468 641.858 143.163 646.575 134.521L647.429 145.316H661.01L662.181 95.9005H620.268V112.14H644.264C643.314 117.807 641.035 121.985 637.426 124.739C633.817 127.462 628.752 128.823 622.199 128.823C613.621 128.823 607.036 126.259 602.541 121.099C598.046 115.971 595.798 108.911 595.798 99.9842C595.798 91.0571 598.078 84.1878 602.668 78.9645C607.258 73.7412 613.652 71.1455 621.82 71.1455C627.043 71.1455 631.095 72.2218 633.976 74.406C636.856 76.5903 639.072 79.7243 640.623 83.8712ZM801.88 107.233H781.366L791.465 74.9442H791.781L801.88 107.233ZM721.315 83.7446C721.315 87.2268 719.985 89.9808 717.358 92.0385C714.699 94.0961 711.216 95.1408 706.88 95.1408H693.679V72.0318H706.88C711.121 72.0318 714.604 73.0765 717.294 75.1658C719.985 77.2551 721.315 80.1041 721.315 83.7446ZM814.099 145.316H837.588L805.71 54.6843H778.138L746.608 143.638C745.975 142.245 745.342 140.757 744.74 139.079C743.949 136.864 743.031 133.983 741.986 130.406C740.942 126.829 740.182 124.359 739.739 122.998C739.074 120.972 738.472 119.294 737.966 117.933C737.459 116.604 736.763 115.116 735.877 113.533C735.022 111.95 734.072 110.621 733.091 109.576C732.109 108.531 730.875 107.55 729.387 106.632C727.931 105.714 726.285 105.049 724.449 104.574C729.83 103.245 734.199 100.586 737.554 96.5336C740.91 92.5133 742.619 87.1318 742.619 80.389C742.619 72.4117 739.485 66.1438 733.217 61.5537C726.95 56.9635 718.592 54.6843 708.083 54.6843H671.646V145.189H693.647V112.71H699.979C705.075 112.71 708.906 113.691 711.533 115.686C714.161 117.68 716.25 120.846 717.769 125.246C718.276 126.639 718.909 128.57 719.7 130.976C720.492 133.381 721.125 135.281 721.6 136.674C722.075 138.066 722.644 139.586 723.341 141.232C724.037 142.878 724.67 144.239 725.303 145.316H769.052L775.795 124.359H807.356L814.099 145.316ZM889.884 84.3777C889.884 88.6829 888.459 91.8802 885.61 93.9695C882.761 96.0588 879.184 97.1035 874.878 97.1035H862.596V72.7283H874.752C884.819 72.7283 889.884 76.622 889.884 84.3777ZM906.978 99.7942C910.112 94.9825 911.695 89.6643 911.695 83.9029C911.695 75.3874 908.529 68.3914 902.229 62.9149C895.93 57.4384 887.193 54.7159 876.05 54.7159H840.595V145.347H862.596V115.274H876.176C882.666 115.274 888.649 113.913 894.094 111.159C899.539 108.405 903.844 104.638 906.978 99.8259V99.7942ZM970.448 145.347H992.386V54.7476H970.448V90.519H937.716V54.7476H915.715V145.379H937.716V109.164H970.448V145.379V145.347Z" fill="white"/>
<path d="M47.3933 69.9483L88.37 46.2933V5L8 51.3917V194.842L47.3933 172.105V69.9483ZM66.3933 161.117L98.6617 142.497V62.285L66.3933 80.905V161.117ZM117.662 195L198 148.608L197.873 5L117.662 51.2967V195Z" fill="white"/>
</svg>
